<svg data-v-fde0c5aa="" xmlns="http://www.w3.org/2000/svg" viewBox="0 0 300 300" class="iconLeft"><!----><defs data-v-fde0c5aa=""><!----></defs><rect data-v-fde0c5aa="" fill="transparent" x="0" y="0" width="300px" height="300px" class="logo-background-square"></rect><defs data-v-fde0c5aa=""><!----></defs><g data-v-fde0c5aa="" id="9cf9895b-5ea7-48ae-8398-aa1416ea3b64" fill="#7655BE" transform="matrix(2.317465654189638,0,0,2.317465654189638,95.11231233653514,127.25407391899539)"><path d="M4.86 7.71L4.86 7.71Q4.86 7.85 4.94 7.92L4.94 7.92L4.94 7.92Q5.03 7.98 5.28 8.09L5.28 8.09L5.28 8.09Q5.45 8.15 5.71 8.29L5.71 8.29L5.71 8.29Q6.19 8.76 6.52 9.59L6.52 9.59L6.52 9.59Q6.85 10.42 6.85 11.42L6.85 11.42L6.85 11.42Q6.90 11.77 6.90 12.24L6.90 12.24L6.90 12.24Q6.90 13.58 6.33 14.80L6.33 14.80L6.33 14.80Q5.77 16.02 4.86 16.58L4.86 16.58L4.86 16.58Q4.47 16.77 4.05 16.81L4.05 16.81L4.05 16.81Q3.64 16.86 2.86 16.86L2.86 16.86L2.86 16.86Q2.56 16.86 2.00 16.72L2.00 16.72L2.00 16.72Q1.41 16.58 1.13 16.58L1.13 16.58L1.13 16.58Q0.78 16.58 0.62 16.55L0.62 16.55L0.62 16.55Q0.46 16.52 0.37 16.40L0.37 16.40L0.37 16.40Q0.28 16.28 0.28 16.00L0.28 16.00L0.28 15.71L1.13 15.71L1.13 15.71Q1.22 15.36 1.27 14.59L1.27 14.59L1.27 14.59Q1.29 14.20 1.29 13.38L1.29 13.38L1.29 13.38Q1.29 12.56 1.31 11.99L1.31 11.99L1.31 11.99Q1.33 11.42 1.43 10.85L1.43 10.85L1.43 10.29L1.43 8.86L1.43 5.99L1.43 3.71L1.43 3.71Q0.85 3.71 0.57 3.61L0.57 3.61L0.57 3.61Q0.28 3.51 0.28 3.14L0.28 3.14L0.28 3.14Q0.46 2.95 0.80 2.91L0.80 2.91L0.80 2.91Q1.13 2.86 1.71 2.86L1.71 2.86L1.71 2.86Q3.14 2.86 3.95 2.95L3.95 2.95L3.95 2.95Q4.76 3.05 5.14 3.43L5.14 3.43L5.14 3.43Q5.19 3.54 5.24 3.63L5.24 3.63L5.24 3.63Q5.29 3.71 5.32 3.78L5.32 3.78L5.32 3.78Q5.53 4.14 5.62 4.42L5.62 4.42L5.62 4.42Q5.71 4.70 5.71 5.14L5.71 5.14L5.71 5.14Q5.78 5.33 5.78 5.63L5.78 5.63L5.78 5.63Q5.78 6.16 5.51 6.74L5.51 6.74L5.51 6.74Q5.24 7.32 4.86 7.71L4.86 7.71ZM3.14 3.71L3.14 3.71Q2.94 3.91 2.90 4.13L2.90 4.13L2.90 4.13Q2.86 4.35 2.86 4.86L2.86 4.86L2.86 4.86Q2.86 5.64 2.90 6.06L2.90 6.06L2.90 6.06Q2.94 6.47 3.14 6.86L3.14 6.86L3.14 6.86Q3.21 6.93 3.29 6.93L3.29 6.93L3.29 6.93Q3.40 6.93 3.51 6.83L3.51 6.83L3.51 6.83Q3.63 6.72 3.78 6.52L3.78 6.52L3.99 6.29L3.99 6.29Q4.19 5.73 4.29 5.31L4.29 5.31L4.29 5.31Q4.40 4.90 4.40 4.56L4.40 4.56L4.40 4.56Q4.40 4.23 4.28 4.00L4.28 4.00L4.28 4.00Q4.09 3.81 3.79 3.76L3.79 3.76L3.79 3.76Q3.49 3.71 3.14 3.71L3.14 3.71ZM4.28 15.43L4.86 14.85L4.86 14.85Q5.04 14.67 5.09 14.37L5.09 14.37L5.09 14.37Q5.14 14.07 5.14 13.72L5.14 13.72L5.14 13.72Q5.35 13.50 5.38 13.43L5.38 13.43L5.38 13.43Q5.42 13.36 5.42 13.15L5.42 13.15L5.42 13.15Q5.54 12.89 5.54 12.42L5.54 12.42L5.54 12.42Q5.54 12.22 5.47 11.49L5.47 11.49L5.47 11.49Q5.42 10.99 5.42 10.85L5.42 10.85L5.43 10.37L5.43 10.37Q5.43 10.21 5.39 10.05L5.39 10.05L5.39 10.05Q5.35 9.90 5.22 9.65L5.22 9.65L5.22 9.65Q5.22 9.65 5.23 9.63L5.23 9.63L5.23 9.63Q5.24 9.60 5.24 9.58L5.24 9.58L5.21 9.37L5.21 9.37Q5.19 9.32 5.13 9.18L5.13 9.18L5.13 9.18Q5.07 9.04 4.98 8.85L4.98 8.85L4.98 8.85Q4.56 8.43 4.07 8.21L4.07 8.21L4.07 8.21Q3.58 7.99 3.14 7.99L3.14 7.99L3.14 7.99Q2.95 8.19 2.91 8.49L2.91 8.49L2.91 8.49Q2.86 8.79 2.86 9.14L2.86 9.14L2.86 13.72L2.86 15.71L2.86 15.71Q3.42 15.71 3.75 15.66L3.75 15.66L3.75 15.66Q4.09 15.61 4.28 15.43L4.28 15.43ZM14.50 15.46L14.50 15.46Q14.36 15.71 14.14 15.95L14.14 15.95L14.14 15.95Q13.92 16.18 13.72 16.31L13.72 16.31L13.72 16.31Q12.91 16.83 12.00 16.83L12.00 16.83L12.00 16.83Q11.09 16.83 10.31 16.34L10.31 16.34L10.31 16.34Q9.53 15.86 9.16 15.16L9.16 15.16L9.16 15.16Q8.64 14.18 8.29 13.15L8.29 13.15L8.29 13.15Q8.11 12.40 8.06 11.64L8.06 11.64L8.06 11.64Q8.01 10.88 8.01 9.73L8.01 9.73L8.01 9.73Q8.01 9.55 7.98 9.21L7.98 9.21L7.98 9.21Q7.95 8.85 7.95 8.67L7.95 8.67L7.95 8.67Q7.95 8.34 8.01 8.01L8.01 8.01L8.01 8.01Q8.02 7.92 8.09 7.55L8.09 7.55L8.09 7.55Q8.16 7.17 8.16 6.92L8.16 6.92L8.16 6.92Q8.19 6.78 8.26 6.38L8.26 6.38L8.26 6.38Q8.32 6.01 8.38 5.78L8.38 5.78L8.38 5.78Q8.44 5.56 8.58 5.43L8.58 5.43L8.58 5.43Q8.74 5.22 9.04 4.75L9.04 4.75L9.04 4.75Q9.46 4.10 9.77 3.74L9.77 3.74L9.77 3.74Q10.07 3.37 10.52 3.11L10.52 3.11L10.52 3.11Q10.98 2.84 11.59 2.84L11.59 2.84L11.59 2.84Q11.87 2.84 12.03 2.87L12.03 2.87L12.03 2.87Q12.87 2.87 13.36 3.12L13.36 3.12L13.36 3.12Q13.86 3.37 14.29 4.02L14.29 4.02L14.29 4.02Q14.95 4.45 15.41 5.36L15.41 5.36L15.41 5.36Q15.86 6.27 15.96 7.36L15.96 7.36L15.96 7.36Q16.02 7.94 16.02 8.88L16.02 8.88L16.02 9.49L16.02 9.49Q16.02 10.92 15.78 11.91L15.78 11.91L15.78 11.91Q15.36 13.90 14.50 15.46L14.50 15.46ZM13.26 15.26L13.26 15.26Q13.44 14.80 13.67 14.08L13.67 14.08L13.67 14.08Q13.90 13.37 14.01 12.88L14.01 12.88L14.01 12.88Q14.20 12.31 14.25 11.73L14.25 11.73L14.25 11.73Q14.29 11.16 14.29 10.30L14.29 10.30L14.29 10.30Q14.29 10.01 14.35 9.56L14.35 9.56L14.35 9.56Q14.35 9.48 14.37 9.26L14.37 9.26L14.37 9.26Q14.39 9.04 14.39 8.85L14.39 8.85L14.39 8.85Q14.39 8.65 14.38 8.39L14.38 8.39L14.38 8.39Q14.36 8.13 14.35 7.99L14.35 7.99L14.35 7.99Q14.29 7.43 14.29 7.15L14.29 7.15L14.29 7.15Q14.15 6.87 14.01 6.31L14.01 6.31L14.01 6.31Q13.87 5.73 13.72 5.43L13.72 5.43L13.57 5.10L13.57 5.10Q13.31 4.55 13.12 4.24L13.12 4.24L13.12 4.24Q12.92 3.93 12.61 3.78L12.61 3.78L12.61 3.78Q12.33 3.78 12.05 3.75L12.05 3.75L12.05 3.75Q11.75 3.72 11.45 3.72L11.45 3.72L11.45 3.72Q11.03 4.14 10.78 4.60L10.78 4.60L10.78 4.60Q10.53 5.05 10.30 5.71L10.30 5.71L10.30 5.71Q10.11 6.09 10.06 6.48L10.06 6.48L10.06 6.48Q10.01 6.86 10.01 7.43L10.01 7.43L10.01 7.43Q9.90 8.33 9.90 9.42L9.90 9.42L9.90 9.42Q9.90 11.40 10.30 13.72L10.30 13.72L10.30 13.72Q10.40 13.92 10.46 14.14L10.46 14.14L10.46 14.14Q10.53 14.36 10.56 14.43L10.56 14.43L10.56 14.43Q10.64 14.73 10.70 14.89L10.70 14.89L10.70 14.89Q10.77 15.05 10.88 15.16L10.88 15.16L10.88 15.16Q10.99 15.16 11.03 15.20L11.03 15.20L11.03 15.20Q11.06 15.25 11.09 15.39L11.09 15.39L11.09 15.39Q11.12 15.53 11.20 15.61L11.20 15.61L11.20 15.61Q11.42 15.83 11.93 15.83L11.93 15.83L11.93 15.83Q12.36 15.83 12.76 15.67L12.76 15.67L12.76 15.67Q13.16 15.51 13.26 15.26L13.26 15.26ZM23.66 15.46L23.66 15.46Q23.52 15.71 23.30 15.95L23.30 15.95L23.30 15.95Q23.07 16.18 22.88 16.31L22.88 16.31L22.88 16.31Q22.06 16.83 21.15 16.83L21.15 16.83L21.15 16.83Q20.24 16.83 19.47 16.34L19.47 16.34L19.47 16.34Q18.69 15.86 18.31 15.16L18.31 15.16L18.31 15.16Q17.79 14.18 17.44 13.15L17.44 13.15L17.44 13.15Q17.26 12.40 17.21 11.64L17.21 11.64L17.21 11.64Q17.16 10.88 17.16 9.73L17.16 9.73L17.16 9.73Q17.16 9.55 17.14 9.21L17.14 9.21L17.14 9.21Q17.11 8.85 17.11 8.67L17.11 8.67L17.11 8.67Q17.11 8.34 17.16 8.01L17.16 8.01L17.16 8.01Q17.18 7.92 17.25 7.55L17.25 7.55L17.25 7.55Q17.32 7.17 17.32 6.92L17.32 6.92L17.32 6.92Q17.35 6.78 17.42 6.38L17.42 6.38L17.42 6.38Q17.47 6.01 17.54 5.78L17.54 5.78L17.54 5.78Q17.60 5.56 17.74 5.43L17.74 5.43L17.74 5.43Q17.89 5.22 18.20 4.75L18.20 4.75L18.20 4.75Q18.62 4.10 18.92 3.74L18.92 3.74L18.92 3.74Q19.22 3.37 19.68 3.11L19.68 3.11L19.68 3.11Q20.13 2.84 20.75 2.84L20.75 2.84L20.75 2.84Q21.03 2.84 21.18 2.87L21.18 2.87L21.18 2.87Q22.02 2.87 22.52 3.12L22.52 3.12L22.52 3.12Q23.02 3.37 23.45 4.02L23.45 4.02L23.45 4.02Q24.11 4.45 24.56 5.36L24.56 5.36L24.56 5.36Q25.02 6.27 25.12 7.36L25.12 7.36L25.12 7.36Q25.17 7.94 25.17 8.88L25.17 8.88L25.17 9.49L25.17 9.49Q25.17 10.92 24.93 11.91L24.93 11.91L24.93 11.91Q24.51 13.90 23.66 15.46L23.66 15.46ZM22.41 15.26L22.41 15.26Q22.60 14.80 22.83 14.08L22.83 14.08L22.83 14.08Q23.06 13.37 23.17 12.88L23.17 12.88L23.17 12.88Q23.35 12.31 23.40 11.73L23.40 11.73L23.40 11.73Q23.45 11.16 23.45 10.30L23.45 10.30L23.45 10.30Q23.45 10.01 23.51 9.56L23.51 9.56L23.51 9.56Q23.51 9.48 23.53 9.26L23.53 9.26L23.53 9.26Q23.55 9.04 23.55 8.85L23.55 8.85L23.55 8.85Q23.55 8.65 23.53 8.39L23.53 8.39L23.53 8.39Q23.52 8.13 23.51 7.99L23.51 7.99L23.51 7.99Q23.45 7.43 23.45 7.15L23.45 7.15L23.45 7.15Q23.31 6.87 23.17 6.31L23.17 6.31L23.17 6.31Q23.03 5.73 22.88 5.43L22.88 5.43L22.72 5.10L22.72 5.10Q22.47 4.55 22.27 4.24L22.27 4.24L22.27 4.24Q22.08 3.93 21.77 3.78L21.77 3.78L21.77 3.78Q21.49 3.78 21.21 3.75L21.21 3.75L21.21 3.75Q20.90 3.72 20.61 3.72L20.61 3.72L20.61 3.72Q20.19 4.14 19.94 4.60L19.94 4.60L19.94 4.60Q19.68 5.05 19.46 5.71L19.46 5.71L19.46 5.71Q19.26 6.09 19.21 6.48L19.21 6.48L19.21 6.48Q19.17 6.86 19.17 7.43L19.17 7.43L19.17 7.43Q19.05 8.33 19.05 9.42L19.05 9.42L19.05 9.42Q19.05 11.40 19.46 13.72L19.46 13.72L19.46 13.72Q19.56 13.92 19.62 14.14L19.62 14.14L19.62 14.14Q19.68 14.36 19.71 14.43L19.71 14.43L19.71 14.43Q19.80 14.73 19.86 14.89L19.86 14.89L19.86 14.89Q19.92 15.05 20.03 15.16L20.03 15.16L20.03 15.16Q20.15 15.16 20.18 15.20L20.18 15.20L20.18 15.20Q20.22 15.25 20.24 15.39L20.24 15.39L20.24 15.39Q20.27 15.53 20.36 15.61L20.36 15.61L20.36 15.61Q20.58 15.83 21.08 15.83L21.08 15.83L21.08 15.83Q21.52 15.83 21.92 15.67L21.92 15.67L21.92 15.67Q22.32 15.51 22.41 15.26L22.41 15.26ZM31.72 3.99L31.72 3.99Q31.72 4.73 31.58 5.33L31.58 5.33L31.58 5.33Q31.44 5.92 31.16 6.82L31.16 6.82L31.16 6.82Q30.88 7.39 30.65 7.84L30.65 7.84L30.31 8.51L30.31 8.51Q30.31 8.74 30.34 8.77L30.34 8.77L30.34 8.77Q30.38 8.81 30.59 8.81L30.59 8.81L30.59 8.81Q30.74 8.95 31.16 9.23L31.16 9.23L31.16 9.23Q31.58 9.51 31.72 9.65L31.72 9.65L31.72 9.65Q32.14 10.21 32.33 10.93L32.33 10.93L32.33 10.93Q32.52 11.65 32.68 12.77L32.68 12.77L32.68 12.77Q32.77 13.50 32.86 13.90L32.86 13.90L32.86 13.90Q32.86 14.04 32.79 14.49L32.79 14.49L32.79 14.49Q32.73 14.83 32.73 14.95L32.73 14.95L32.73 14.95Q32.73 15.19 32.86 15.32L32.86 15.32L32.86 15.32Q32.86 15.41 32.94 15.50L32.94 15.50L32.94 15.50Q33.01 15.58 33.18 15.72L33.18 15.72L33.18 15.72Q33.21 15.75 33.31 15.83L33.31 15.83L33.31 15.83Q33.40 15.92 33.45 16.00L33.45 16.00L33.45 16.00Q33.50 16.07 33.50 16.14L33.50 16.14L33.50 16.14Q33.50 16.31 33.42 16.48L33.42 16.48L33.42 16.48Q33.33 16.65 33.31 16.69L33.31 16.69L33.31 16.69Q32.76 16.69 31.75 16.72L31.75 16.72L30.70 16.73L30.70 16.73Q30.53 16.55 30.53 16.37L30.53 16.37L30.53 16.37Q30.53 16.30 30.55 16.24L30.55 16.24L30.55 16.24Q30.58 16.18 30.59 16.17L30.59 16.17L31.16 15.60L31.16 15.60Q31.28 15.33 31.28 15.04L31.28 15.04L31.28 15.04Q31.28 14.84 31.22 14.48L31.22 14.48L31.22 14.48Q31.16 14.08 31.16 13.90L31.16 13.90L31.16 12.19L31.16 11.91L31.16 11.91Q31.16 11.21 30.94 10.53L30.94 10.53L30.94 10.53Q30.72 9.84 30.31 9.65L30.31 9.65L30.31 9.65Q29.89 9.44 29.46 9.44L29.46 9.44L29.46 9.44Q29.04 9.44 28.60 9.65L28.60 9.65L28.60 9.65Q28.25 10.00 28.25 11.12L28.25 11.12L28.25 11.12Q28.25 11.63 28.29 12.14L28.29 12.14L28.29 12.14Q28.32 12.78 28.32 13.03L28.32 13.03L28.32 13.03Q28.32 13.23 28.28 13.41L28.28 13.41L28.28 13.41Q28.24 13.59 28.18 13.76L28.18 13.76L28.18 13.76Q28.03 14.15 28.03 14.48L28.03 14.48L28.03 15.60L28.03 15.60Q28.29 15.72 28.46 15.93L28.46 15.93L28.46 15.93Q28.63 16.13 28.63 16.31L28.63 16.31L28.63 16.31Q28.63 16.58 28.32 16.73L28.32 16.73L28.32 16.73Q28.18 16.67 27.90 16.65L27.90 16.65L27.80 16.65L27.80 16.65Q27.58 16.65 27.19 16.73L27.19 16.73L27.19 16.73Q26.77 16.81 26.56 16.81L26.56 16.81L26.56 16.81Q26.33 16.81 26.07 16.73L26.07 16.73L26.07 16.73Q25.84 16.51 25.81 16.44L25.81 16.44L25.81 16.44Q25.77 16.37 25.77 16.17L25.77 16.17L25.77 16.17Q25.87 16.07 26.08 15.93L26.08 15.93L26.08 15.93Q26.22 15.85 26.28 15.78L26.28 15.78L26.28 15.78Q26.33 15.71 26.33 15.60L26.33 15.60L26.33 14.18L26.33 11.91L26.33 11.91Q26.33 11.91 26.35 11.84L26.35 11.84L26.35 11.84Q26.36 11.77 26.36 11.61L26.36 11.61L26.33 11.34L26.33 11.34Q26.33 11.19 26.45 10.89L26.45 10.89L26.45 10.89Q26.63 10.29 26.63 9.93L26.63 9.93L26.63 9.93Q26.63 8.16 26.58 6.97L26.58 6.97L26.58 6.97Q26.53 5.78 26.33 4.83L26.33 4.83L26.33 3.99L26.33 3.99Q26.05 3.99 25.91 3.94L25.91 3.94L25.91 3.94Q25.77 3.89 25.77 3.70L25.77 3.70L25.77 3.70Q25.58 3.70 25.58 3.37L25.58 3.37L25.58 3.37Q25.58 3.23 25.63 3.09L25.63 3.09L25.63 3.09Q25.68 2.95 25.75 2.88L25.75 2.88L25.75 2.88Q25.84 2.79 26.03 2.79L26.03 2.79L26.03 2.79Q26.10 2.79 26.32 2.81L26.32 2.81L26.32 2.81Q26.74 2.86 26.85 2.86L26.85 2.86L27.22 2.84L27.22 2.84Q27.61 2.81 27.82 2.81L27.82 2.81L27.82 2.81Q28.31 2.81 28.60 2.94L28.60 2.94L28.60 2.94Q28.90 3.07 28.90 3.42L28.90 3.42L28.90 3.42Q28.90 3.53 28.83 3.59L28.83 3.59L28.83 3.59Q28.77 3.65 28.64 3.74L28.64 3.74L28.64 3.74Q28.41 3.91 28.32 3.99L28.32 3.99L28.32 3.99Q28.32 4.54 28.46 5.54L28.46 5.54L28.46 5.54Q28.60 6.52 28.60 7.10L28.60 7.10L28.60 7.10Q28.60 7.17 28.55 7.42L28.55 7.42L28.55 7.42Q28.53 7.48 28.50 7.62L28.50 7.62L28.50 7.62Q28.48 7.77 28.48 7.88L28.48 7.88L28.48 7.88Q28.48 8.11 28.60 8.23L28.60 8.23L28.60 8.23Q29.39 8.04 29.87 7.34L29.87 7.34L29.87 7.34Q30.35 6.65 30.59 5.68L30.59 5.68L30.59 5.68Q30.59 5.35 30.74 4.83L30.74 4.83L30.74 4.83Q30.88 4.27 30.88 3.99L30.88 3.99L30.31 3.99L30.31 3.99Q30.31 3.82 30.16 3.70L30.16 3.70L30.16 3.70Q30.02 3.56 30.02 3.42L30.02 3.42L30.02 3.42Q30.14 3.19 30.35 3.12L30.35 3.12L30.35 3.12Q30.56 3.05 30.97 3.01L30.97 3.01L30.97 3.01Q31.47 2.98 31.72 2.86L31.72 2.86L31.72 2.86Q31.99 2.94 32.12 3.10L32.12 3.10L32.12 3.10Q32.26 3.26 32.26 3.46L32.26 3.46L32.26 3.46Q32.26 3.67 32.10 3.83L32.10 3.83L32.10 3.83Q31.95 3.99 31.72 3.99L31.72 3.99ZM38.71 3.37L38.71 3.37Q38.71 3.29 38.77 3.18L38.77 3.18L38.77 3.18Q38.82 3.07 39.02 3.07L39.02 3.07L39.02 3.07Q39.31 3.07 39.45 3.12L39.45 3.12L39.45 3.12Q39.59 3.16 39.59 3.37L39.59 3.37L39.59 3.37Q39.73 3.51 39.73 3.74L39.73 3.74L39.73 3.74Q39.73 3.91 39.65 4.21L39.65 4.21L39.65 4.21Q39.59 4.47 39.59 4.54L39.59 4.54L39.59 4.54Q39.55 4.63 39.39 5.01L39.39 5.01L39.39 5.01Q39.23 5.38 39.04 5.59L39.04 5.59L39.04 5.59Q38.85 5.80 38.64 5.80L38.64 5.80L38.64 5.80Q38.51 5.80 38.40 5.74L38.40 5.74L38.40 5.74Q38.28 5.61 38.28 5.36L38.28 5.36L38.28 5.36Q38.28 5.24 38.33 4.87L38.33 4.87L38.33 4.87Q38.40 4.38 38.40 4.26L38.40 4.26L38.40 4.26Q38.18 4.02 37.76 3.84L37.76 3.84L37.76 3.84Q37.34 3.65 36.92 3.65L36.92 3.65L36.92 3.65Q36.69 4.09 36.69 5.00L36.69 5.00L36.69 5.00Q36.69 5.91 36.92 6.36L36.92 6.36L36.92 6.36Q37.10 6.73 37.43 7.02L37.43 7.02L37.43 7.02Q37.76 7.31 38.33 7.70L38.33 7.70L38.33 7.70Q38.96 8.13 39.35 8.48L39.35 8.48L39.35 8.48Q39.75 8.82 40.03 9.31L40.03 9.31L40.03 9.31Q40.38 9.91 40.60 10.37L40.60 10.37L40.60 10.37Q40.82 10.81 40.94 11.33L40.94 11.33L40.94 11.33Q41.05 11.84 41.05 12.33L41.05 12.33L41.05 12.33Q41.05 13.17 40.91 13.76L40.91 13.76L40.91 13.76Q40.78 14.34 40.49 14.99L40.49 14.99L40.49 14.99Q40.15 15.72 39.59 16.14L39.59 16.14L39.59 16.14Q39.03 16.55 38.12 16.77L38.12 16.77L36.92 16.77L36.92 16.77Q36.54 16.77 36.01 16.37L36.01 16.37L36.01 16.37Q35.49 15.96 35.14 15.58L35.14 15.58L35.14 15.58Q34.71 14.77 34.71 13.87L34.71 13.87L34.71 13.87Q34.71 13.44 34.83 12.91L34.83 12.91L34.83 12.91Q34.68 12.91 34.52 13.06L34.52 13.06L34.52 13.06Q34.40 13.22 34.24 13.22L34.24 13.22L34.24 13.22Q34.03 13.01 33.98 12.80L33.98 12.80L33.98 12.80Q33.94 12.60 33.94 12.32L33.94 12.32L33.94 12.32Q34.41 12.15 35.04 12.05L35.04 12.05L35.04 12.05Q35.35 12.00 35.69 11.91L35.69 11.91L35.69 11.91Q36.02 11.83 36.33 11.70L36.33 11.70L36.33 11.70Q36.65 11.70 36.85 11.91L36.85 11.91L36.85 11.91Q37.04 12.12 37.04 12.43L37.04 12.43L37.04 12.43Q37.04 12.67 36.92 12.91L36.92 12.91L36.92 12.91Q36.62 12.91 36.43 12.96L36.43 12.96L36.43 12.96Q36.23 13.01 36.02 13.22L36.02 13.22L36.02 13.22Q35.71 13.52 35.71 14.17L35.71 14.17L35.71 14.17Q35.71 14.73 35.96 15.24L35.96 15.24L35.96 15.24Q36.20 15.75 36.61 15.89L36.61 15.89L36.61 15.89Q36.79 15.89 36.92 15.74L36.92 15.74L36.92 15.74Q36.93 15.72 37.02 15.65L37.02 15.65L37.02 15.65Q37.10 15.58 37.23 15.58L37.23 15.58L37.23 15.58Q38.21 15.09 38.72 14.05L38.72 14.05L38.72 14.05Q39.23 13.01 39.23 11.68L39.23 11.68L39.23 11.68Q39.23 10.81 39.02 9.93L39.02 9.93L39.02 9.93Q38.78 9.48 38.52 9.22L38.52 9.22L38.52 9.22Q38.26 8.96 37.81 8.72L37.81 8.72L37.81 8.72Q37.41 8.53 37.16 8.32L37.16 8.32L37.16 8.32Q36.90 8.12 36.61 7.83L36.61 7.83L36.61 7.83Q36.47 7.69 36.23 7.55L36.23 7.55L36.23 7.55Q35.87 7.34 35.62 7.07L35.62 7.07L35.62 7.07Q35.53 6.97 35.21 6.65L35.21 6.65L35.21 6.65Q34.89 6.33 34.71 6.03L34.71 6.03L34.71 6.03Q34.52 5.73 34.52 5.46L34.52 5.46L34.52 5.46Q34.45 5.25 34.45 4.97L34.45 4.97L34.45 4.97Q34.45 4.03 35.42 3.07L35.42 3.07L35.42 3.07Q35.53 3.07 35.66 3.02L35.66 3.02L35.66 3.02Q35.78 2.97 35.83 2.95L35.83 2.95L35.83 2.95Q36.22 2.76 36.61 2.76L36.61 2.76L36.61 2.76Q36.88 2.76 37.06 2.79L37.06 2.79L37.06 2.79Q37.24 2.83 37.51 2.91L37.51 2.91L38.12 3.07L38.12 3.07Q38.15 3.09 38.23 3.16L38.23 3.16L38.23 3.16Q38.32 3.23 38.44 3.30L38.44 3.30L38.44 3.30Q38.57 3.37 38.71 3.37L38.71 3.37ZM48.82 3.96L48.82 3.96Q48.62 4.34 48.57 4.87L48.57 4.87L48.57 4.87Q48.52 5.39 48.52 6.26L48.52 6.26L48.52 8.81L48.52 11.09L48.52 11.09Q48.52 11.94 48.68 13.38L48.68 13.38L48.68 13.38Q48.82 14.95 48.82 15.65L48.82 15.65L48.82 15.65Q48.93 15.76 49.13 15.88L49.13 15.88L49.13 15.88Q49.27 15.97 49.33 16.04L49.33 16.04L49.33 16.04Q49.39 16.10 49.39 16.23L49.39 16.23L49.39 16.80L49.39 16.80Q49.39 16.79 49.35 16.73L49.35 16.73L49.35 16.73Q49.31 16.67 49.25 16.67L49.25 16.67L49.25 16.67Q49.18 16.67 49.11 16.74L49.11 16.74L49.11 16.74Q48.93 16.80 48.82 16.81L48.82 16.81L48.82 16.81Q48.71 16.81 48.68 16.81L48.68 16.81L48.34 16.81L48.34 16.81Q48.19 16.80 47.67 16.80L47.67 16.80L47.00 16.81L47.00 16.81Q46.83 16.65 46.83 16.56L46.83 16.56L46.83 16.56Q46.83 16.49 46.94 16.39L46.94 16.39L46.94 16.39Q47.05 16.28 47.11 16.23L47.11 16.23L47.11 16.23Q47.11 16.13 47.18 16.07L47.18 16.07L47.18 16.07Q47.25 16.00 47.39 15.93L47.39 15.93L47.39 15.93Q47.53 15.86 47.60 15.81L47.60 15.81L47.60 15.81Q47.67 15.75 47.67 15.65L47.67 15.65L47.67 15.65Q47.80 14.69 47.80 13.30L47.80 13.30L47.80 13.30Q47.80 12.22 47.73 10.86L47.73 10.86L47.73 10.86Q47.67 9.27 47.67 8.53L47.67 8.53L47.67 8.53Q47.67 8.40 47.61 8.33L47.61 8.33L47.61 8.33Q47.54 8.26 47.47 8.25L47.47 8.25L47.47 8.25Q47.40 8.23 47.38 8.23L47.38 8.23L47.38 8.23Q47.01 8.11 46.45 8.11L46.45 8.11L46.45 8.11Q46.00 8.11 45.44 8.18L45.44 8.18L45.44 8.18Q44.80 8.23 44.53 8.23L44.53 8.23L44.53 8.23Q44.14 8.62 44.05 9.04L44.05 9.04L44.05 9.04Q43.96 9.45 43.96 10.25L43.96 10.25L43.96 13.37L43.96 14.24L43.96 14.24Q44.04 14.38 44.10 14.63L44.10 14.63L44.10 14.63Q44.11 14.74 44.11 14.95L44.11 14.95L44.11 14.95Q44.11 15.16 44.13 15.32L44.13 15.32L44.13 15.32Q44.16 15.47 44.25 15.65L44.25 15.65L44.25 15.65Q44.41 15.65 44.60 15.83L44.60 15.83L44.60 15.83Q44.79 16.00 44.79 16.18L44.79 16.18L44.79 16.18Q44.79 16.39 44.53 16.51L44.53 16.51L44.53 16.51Q44.25 16.51 43.48 16.58L43.48 16.58L43.48 16.58Q42.95 16.63 42.69 16.63L42.69 16.63L42.69 16.63Q42.18 16.63 41.69 16.51L41.69 16.51L41.69 16.51Q41.66 16.46 41.61 16.31L41.61 16.31L41.61 16.31Q41.57 16.16 41.57 16.00L41.57 16.00L41.57 16.00Q41.57 15.78 41.69 15.65L41.69 15.65L42.27 15.65L42.27 14.52L42.27 7.95L42.27 7.38L42.27 7.10L42.27 6.26L42.27 5.96L42.27 5.96Q42.20 5.80 42.14 5.49L42.14 5.49L42.14 5.49Q42.13 5.32 42.13 4.96L42.13 4.96L42.13 4.96Q42.13 4.61 42.10 4.38L42.10 4.38L42.10 4.38Q42.07 4.14 41.97 3.96L41.97 3.96L41.97 3.96Q41.94 3.96 41.87 3.95L41.87 3.95L41.87 3.95Q41.79 3.93 41.66 3.86L41.66 3.86L41.66 3.86Q41.52 3.79 41.40 3.67L41.40 3.67L41.40 3.67Q41.37 3.65 41.32 3.56L41.32 3.56L41.32 3.56Q41.27 3.47 41.27 3.37L41.27 3.37L41.27 3.37Q41.27 3.22 41.40 3.09L41.40 3.09L42.55 3.09L42.55 3.09Q42.73 3.09 43.15 3.04L43.15 3.04L43.15 3.04Q43.57 2.97 43.89 2.97L43.89 2.97L43.89 2.97Q44.28 2.97 44.53 3.09L44.53 3.09L44.53 3.09Q44.76 3.09 44.93 3.28L44.93 3.28L44.93 3.28Q45.11 3.46 45.11 3.67L45.11 3.67L45.11 3.67Q45.11 3.86 44.86 3.91L44.86 3.91L44.86 3.91Q44.60 3.96 44.25 3.96L44.25 3.96L44.25 3.96Q44.13 4.09 44.13 4.26L44.13 4.26L44.13 4.26Q44.13 4.34 44.18 4.56L44.18 4.56L44.18 4.56Q44.25 4.94 44.25 5.11L44.25 5.11L44.25 5.11Q44.25 5.28 44.20 5.73L44.20 5.73L44.20 5.73Q44.13 6.12 44.13 6.47L44.13 6.47L44.13 6.47Q44.13 6.86 44.25 7.10L44.25 7.10L44.25 7.10Q45.12 7.31 45.96 7.31L45.96 7.31L45.96 7.31Q46.83 7.31 47.67 7.10L47.67 7.10L47.67 7.10Q47.67 6.10 47.62 5.31L47.62 5.31L47.62 5.31Q47.57 4.52 47.38 3.96L47.38 3.96L47.38 3.96Q47.32 3.88 47.14 3.82L47.14 3.82L47.14 3.82Q47.04 3.81 46.82 3.81L46.82 3.81L46.82 3.81Q46.61 3.81 46.48 3.79L46.48 3.79L46.48 3.79Q46.35 3.77 46.26 3.67L46.26 3.67L46.26 3.09L46.26 3.09Q46.93 2.77 47.50 2.77L47.50 2.77L47.50 2.77Q47.73 2.77 47.95 2.81L47.95 2.81L47.95 2.81Q48.23 2.84 48.29 2.84L48.29 2.84L48.29 2.84Q48.43 2.84 48.55 2.83L48.55 2.83L48.55 2.83Q48.68 2.81 48.82 2.81L48.82 2.81L48.82 2.81Q49.03 2.91 49.14 3.10L49.14 3.10L49.14 3.10Q49.25 3.29 49.25 3.49L49.25 3.49L49.25 3.49Q49.25 3.68 49.14 3.82L49.14 3.82L49.14 3.82Q49.03 3.96 48.82 3.96L48.82 3.96ZM56.01 5.08L56.01 5.08Q55.94 4.98 55.89 4.82L55.89 4.82L55.89 4.82Q55.87 4.72 55.87 4.51L55.87 4.51L55.87 4.51Q55.87 4.28 55.85 4.16L55.85 4.16L55.85 4.16Q55.82 4.03 55.72 3.95L55.72 3.95L55.72 3.95Q55.44 3.79 55.15 3.65L55.15 3.65L55.15 3.65Q54.50 3.65 54.02 3.70L54.02 3.70L54.02 3.70Q53.54 3.75 53.16 3.95L53.16 3.95L53.16 3.95Q53.00 4.09 52.95 4.30L52.95 4.30L52.95 4.30Q52.91 4.52 52.91 4.90L52.91 4.90L52.91 4.90Q52.91 5.56 52.88 6.26L52.88 6.26L52.86 7.07L52.86 7.07Q52.86 7.28 52.93 7.91L52.93 7.91L52.93 7.91Q52.99 8.33 52.99 8.50L52.99 8.50L52.99 8.50Q52.99 8.83 52.86 9.09L52.86 9.09L52.86 9.09Q53.06 9.25 53.50 9.30L53.50 9.30L53.50 9.30Q53.94 9.35 54.57 9.35L54.57 9.35L54.57 9.35Q54.57 9.00 54.62 8.76L54.62 8.76L54.62 8.76Q54.67 8.51 54.87 8.51L54.87 8.51L54.87 8.51Q55.08 8.51 55.15 8.55L55.15 8.55L55.15 8.55Q55.22 8.58 55.44 8.79L55.44 8.79L55.44 8.79Q55.37 8.93 55.37 9.10L55.37 9.10L55.37 9.10Q55.36 9.17 55.36 9.34L55.36 9.34L55.36 9.34Q55.36 9.63 55.40 9.95L55.40 9.95L55.40 9.95Q55.43 10.35 55.43 10.51L55.43 10.51L55.43 10.51Q55.43 10.79 55.36 10.94L55.36 10.94L55.36 10.94Q55.30 11.09 55.15 11.09L55.15 11.09L55.15 11.09Q55.10 11.06 54.96 10.98L54.96 10.98L54.96 10.98Q54.82 10.89 54.70 10.77L54.70 10.77L54.70 10.77Q54.57 10.64 54.57 10.51L54.57 10.51L54.57 10.22L53.16 10.22L53.16 10.22Q53.00 10.67 53.00 11.41L53.00 11.41L53.00 11.41Q53.00 11.89 53.05 12.35L53.05 12.35L53.05 12.35Q53.07 12.91 53.07 13.12L53.07 13.12L53.07 13.12Q53.07 13.17 53.12 14.64L53.12 14.64L53.12 14.64Q53.16 15.26 53.16 15.65L53.16 15.65L53.16 15.65Q53.73 15.85 54.19 15.89L54.19 15.89L54.19 15.89Q54.64 15.93 55.44 15.93L55.44 15.93L55.44 15.93Q55.65 15.83 55.69 15.64L55.69 15.64L55.69 15.64Q55.73 15.51 55.73 15.23L55.73 15.23L55.73 15.23Q55.73 14.94 55.78 14.78L55.78 14.78L55.78 14.78Q55.83 14.62 56.01 14.52L56.01 14.52L56.01 14.52Q56.39 14.52 56.49 14.90L56.49 14.90L56.49 14.90Q56.59 15.29 56.59 15.93L56.59 15.93L56.59 15.93Q56.59 16.13 56.45 16.30L56.45 16.30L56.45 16.30Q56.32 16.48 56.01 16.80L56.01 16.80L54.57 16.80L54.57 16.80Q53.14 16.80 52.14 16.75L52.14 16.75L52.14 16.75Q51.14 16.70 50.01 16.51L50.01 16.51L50.01 15.93L51.16 15.93L51.16 15.93Q51.28 15.19 51.28 14.31L51.28 14.31L51.28 14.31Q51.28 13.82 51.23 12.78L51.23 12.78L51.23 12.78Q51.16 11.87 51.16 11.09L51.16 11.09L51.16 10.51L51.16 7.64L51.16 6.51L51.16 3.95L50.01 3.95L50.01 3.37L50.01 3.37Q50.60 3.22 51.77 3.08L51.77 3.08L51.77 3.08Q52.89 2.94 53.44 2.80L53.44 2.80L56.29 2.80L56.29 2.80Q56.32 2.83 56.39 2.91L56.39 2.91L56.39 2.91Q56.46 2.98 56.52 3.12L56.52 3.12L56.52 3.12Q56.59 3.25 56.59 3.37L56.59 3.37L56.59 3.37Q56.59 3.54 56.66 3.85L56.66 3.85L56.66 3.85Q56.73 4.34 56.73 4.44L56.73 4.44L56.73 4.44Q56.73 4.75 56.57 4.91L56.57 4.91L56.57 4.91Q56.42 5.08 56.01 5.08L56.01 5.08ZM61.03 3.22L61.03 3.22Q60.87 3.54 60.63 3.78L60.63 3.78L60.63 3.78Q60.54 3.88 60.50 3.93L60.50 3.93L60.50 3.93Q60.47 3.99 60.47 4.09L60.47 4.09L60.47 4.09Q60.47 5.40 60.38 6.84L60.38 6.84L60.38 6.84Q60.30 8.27 60.28 8.55L60.28 8.55L60.28 8.55Q60.19 10.05 60.14 11.07L60.14 11.07L60.14 11.07Q60.09 12.08 60.09 13.13L60.09 13.13L60.09 13.13Q60.09 14.45 60.16 15.43L60.16 15.43L60.16 15.48L60.16 15.48Q60.16 15.65 60.20 15.67L60.20 15.67L60.20 15.67Q60.24 15.69 60.47 15.71L60.47 15.71L60.47 15.71Q60.66 15.72 60.78 15.71L60.78 15.71L60.78 15.71Q60.90 15.71 61.03 15.71L61.03 15.71L61.03 15.71Q61.07 15.71 61.22 15.71L61.22 15.71L61.22 15.71Q61.36 15.72 61.60 15.71L61.60 15.71L61.91 15.71L61.91 13.97L61.91 12.81L61.91 12.81Q62.03 12.68 62.19 12.68L62.19 12.68L62.19 12.68Q62.30 12.68 62.38 12.73L62.38 12.73L62.38 12.73Q62.47 12.78 62.50 12.81L62.50 12.81L62.50 12.81Q62.85 13.16 62.85 14.01L62.85 14.01L62.85 14.01Q62.85 14.38 62.80 14.76L62.80 14.76L62.80 14.76Q62.78 15.23 62.78 15.43L62.78 15.43L62.78 15.43Q62.78 15.51 62.83 15.74L62.83 15.74L62.83 15.74Q62.90 16.13 62.90 16.21L62.90 16.21L62.90 16.21Q62.90 16.46 62.78 16.59L62.78 16.59L62.78 16.59Q62.13 16.70 61.47 16.72L61.47 16.72L61.47 16.72Q61.04 16.73 60.20 16.73L60.20 16.73L60.20 16.73Q59.37 16.73 58.86 16.75L58.86 16.75L58.86 16.75Q58.34 16.77 57.85 16.87L57.85 16.87L57.85 16.87Q57.69 16.73 57.54 16.65L57.54 16.65L57.54 16.65Q57.39 16.56 57.32 16.49L57.32 16.49L57.32 16.49Q57.26 16.42 57.26 16.28L57.26 16.28L57.26 16.28Q57.26 16.10 57.41 16.05L57.41 16.05L57.41 16.05Q57.55 16.00 57.85 16.00L57.85 16.00L57.85 16.00Q58.04 15.81 58.09 15.58L58.09 15.58L58.09 15.58Q58.13 15.36 58.13 14.84L58.13 14.84L58.13 14.84Q58.32 13.89 58.37 12.69L58.37 12.69L58.37 12.69Q58.42 11.49 58.42 9.91L58.42 9.91L58.42 9.60L58.42 7.01L58.42 7.01Q58.42 6.05 58.37 5.36L58.37 5.36L58.37 5.36Q58.32 4.68 58.13 4.09L58.13 4.09L58.13 4.09Q58.13 3.96 58.07 3.91L58.07 3.91L58.07 3.91Q58.02 3.85 57.86 3.75L57.86 3.75L57.86 3.75Q57.67 3.64 57.54 3.53L57.54 3.53L57.54 2.94L57.85 2.94L57.85 2.94Q58.30 2.94 58.95 2.87L58.95 2.87L58.95 2.87Q59.11 2.86 59.51 2.83L59.51 2.83L59.51 2.83Q59.91 2.80 60.23 2.80L60.23 2.80L60.23 2.80Q60.62 2.80 60.80 2.83L60.80 2.83L60.80 2.83Q60.97 2.84 61.01 2.88L61.01 2.88L61.01 2.88Q61.04 2.93 61.03 3.04L61.03 3.04L61.03 3.04Q61.03 3.15 61.03 3.22L61.03 3.22ZM71.11 5.36L71.11 5.36Q71.11 5.54 70.96 5.59L70.96 5.59L70.96 5.59Q70.81 5.64 70.53 5.64L70.53 5.64L70.53 5.64Q70.34 5.26 70.29 4.85L70.29 4.85L70.29 4.85Q70.25 4.44 70.25 3.65L70.25 3.65L70.25 3.65Q69.10 3.65 68.39 3.70L68.39 3.70L68.39 3.70Q67.68 3.75 67.10 3.95L67.10 3.95L67.10 3.95Q66.99 4.19 66.99 4.76L66.99 4.76L66.99 4.76Q66.99 5.07 67.05 5.85L67.05 5.85L67.05 5.85Q67.10 6.69 67.10 7.08L67.10 7.08L67.10 7.08Q67.10 7.17 67.09 7.25L67.09 7.25L67.09 7.25Q67.07 7.32 67.06 7.39L67.06 7.39L67.06 7.39Q66.99 7.64 66.99 7.87L66.99 7.87L66.99 7.87Q66.99 8.09 67.10 8.22L67.10 8.22L67.97 8.22L67.97 7.08L67.97 7.08Q68.49 7.06 68.68 7.43L68.68 7.43L68.68 7.43Q68.87 7.81 68.87 8.47L68.87 8.47L68.87 8.47Q68.87 8.72 68.84 9.14L68.84 9.14L68.82 9.65L68.82 9.65Q68.61 9.86 68.51 9.89L68.51 9.89L68.51 9.89Q68.40 9.93 67.97 9.93L67.97 9.93L67.97 9.37L67.97 9.37Q67.79 9.17 67.59 9.12L67.59 9.12L67.59 9.12Q67.40 9.07 67.10 9.07L67.10 9.07L67.10 9.07Q66.92 9.27 66.84 9.48L66.84 9.48L66.84 9.48Q66.77 9.69 66.77 9.95L66.77 9.95L66.77 9.95Q66.77 10.09 66.79 10.43L66.79 10.43L66.79 10.43Q66.84 10.72 66.84 11.07L66.84 11.07L66.84 11.07Q66.65 11.44 66.61 11.93L66.61 11.93L66.61 11.93Q66.56 12.42 66.56 13.08L66.56 13.08L66.56 13.93L66.56 13.93Q66.56 14.49 66.61 14.88L66.61 14.88L66.61 14.88Q66.65 15.26 66.84 15.64L66.84 15.64L66.84 15.64Q66.99 15.64 67.23 15.87L67.23 15.87L67.23 15.87Q67.48 16.10 67.48 16.28L67.48 16.28L67.48 16.28Q67.48 16.49 67.10 16.49L67.10 16.49L67.10 16.49Q67.10 16.62 67.02 16.62L67.02 16.62L67.02 16.62Q66.98 16.62 66.81 16.55L66.81 16.55L66.81 16.55Q66.65 16.49 66.56 16.49L66.56 16.49L66.56 16.49Q66.44 16.49 66.32 16.54L66.32 16.54L66.32 16.54Q66.19 16.59 66.15 16.60L66.15 16.60L66.15 16.60Q66.12 16.62 65.91 16.70L65.91 16.70L65.91 16.70Q65.69 16.77 65.39 16.77L65.39 16.77L65.39 16.77Q65.25 16.77 64.83 16.63L64.83 16.63L64.83 16.63Q64.39 16.49 64.26 16.49L64.26 16.49L64.26 16.49Q64.08 16.49 64.03 16.34L64.03 16.34L64.03 16.34Q63.98 16.20 63.98 15.92L63.98 15.92L63.98 15.92Q64.11 15.79 64.23 15.73L64.23 15.73L64.23 15.73Q64.36 15.67 64.44 15.65L64.44 15.65L64.44 15.65Q64.51 15.64 64.54 15.64L64.54 15.64L64.54 15.64Q64.78 15.51 64.85 15.24L64.85 15.24L64.85 15.24Q64.92 14.97 64.96 14.41L64.96 14.41L64.96 14.41Q64.99 13.72 65.11 13.34L65.11 13.34L65.11 11.07L65.11 11.07Q65.11 10.93 65.18 10.56L65.18 10.56L65.18 10.56Q65.24 10.28 65.24 10.15L65.24 10.15L65.24 10.15Q65.24 9.90 65.11 9.65L65.11 9.65L65.11 9.65Q65.11 9.51 65.21 9.27L65.21 9.27L65.21 9.27Q65.39 8.85 65.39 8.51L65.39 8.51L65.39 8.51Q65.39 8.08 65.25 7.07L65.25 7.07L65.25 7.07Q65.11 6.06 65.11 5.64L65.11 5.64L65.11 5.64Q65.11 5.46 65.17 5.04L65.17 5.04L65.17 5.04Q65.24 4.62 65.24 4.30L65.24 4.30L65.24 4.30Q65.24 3.91 65.11 3.65L65.11 3.65L65.11 3.65Q64.99 3.65 64.53 3.72L64.53 3.72L64.53 3.72Q64.19 3.78 64.06 3.78L64.06 3.78L64.06 3.78Q63.81 3.78 63.69 3.65L63.69 3.65L63.69 3.65Q63.48 3.44 63.48 3.23L63.48 3.23L63.48 3.23Q63.48 3.01 63.69 2.80L63.69 2.80L69.40 2.80L70.53 2.80L70.53 2.80Q70.88 2.80 71.02 3.15L71.02 3.15L71.02 3.15Q71.15 3.50 71.15 4.10L71.15 4.10L71.15 4.10Q71.15 4.37 71.12 4.82L71.12 4.82L71.11 5.36Z"></path></g><defs data-v-fde0c5aa=""><!----></defs><g data-v-fde0c5aa="" id="398c4336-d14b-4520-851a-9b4a182f6d5f" stroke="none" fill="#7655BE" transform="matrix(0.49150807726978013,0,0,0.49150807726978013,-145.59342297772392,3.6981801583685865)"><switch><g><path d="M464.3 270.7v-.5c-.3-2-2-3-3.7-2.3-2 .9-3.9 1.8-5.9 2.6-3.4 1.4-6.7 2.9-10.2 4.3-2.2.9-4.4 2-6.6 2.9-3.3 1.4-6.6 2.8-10 4.2-1.7.7-3.4 1.6-5.1 2.2-2.5.9-5 1-7.6.6-2.5-.4-4.9-.9-7.2-2.4 1.7-.7 3.4-1.4 5-2.2 5-2.2 10.1-4.3 15-6.5 4.3-1.9 8.5-3.7 12.9-5.6.7-.3 1.3-.8 2.2-.4 1.4.7 2.8 1.3 4.4 1.9v-6.9c0-1.6-1.8-2.8-3.3-2.3-1.6.6-3.1 1.4-4.6 2-3.3 1.3-6.5 2.8-9.7 4.2-2.2.9-4.4 1.9-6.6 2.9-3.2 1.4-6.4 2.7-9.7 4.1-2.3 1-4.6 1.9-6.8 2.9-2.4 1.1-4.4 2.8-4.4 6.2.1 18.7 0 37.5 0 56.2 0 .7.1 1.3.4 2 .9 2.5 2.9 3.8 5.2 4.7 2.5 1 5 1.6 7.7 1.9 2.7.3 5.3.2 7.9-.6 3.8-1.2 7.3-3.1 11.1-4.6 2.8-1.2 5.6-2.5 8.3-3.7 3.8-1.6 7.6-3.2 11.5-4.9 2.7-1.2 5.4-2.4 8.1-3.5 1.2-.5 2-1.6 2-2.9-.3-18.6-.3-37.5-.3-56.5zm-20.8 54.2s-13.6-4.2-13.6-15.4 9.7-17.1 13.3-9.4c0 0 3.1-10.1 9.5-8.6 6.5 1.2 5.5 16.6-9.2 33.4z"></path><path d="M412.4 269.1c2.1-.9 4.2-1.9 6.3-2.8 3.8-1.6 7.6-3.2 11.6-4.9 2.8-1.2 5.7-2.5 8.5-3.7.6-.3.6-.5.5-1-.3-.9-.9-1.4-1.7-1.8h-1.2c-2.1.7-4.1 1.7-6.1 2.6-3.8 1.6-7.6 3.2-11.4 4.9-2.7 1.2-5.4 2.4-8.2 3.6-3.4 1.5-6.9 3-10.4 4.4-6 2.5-11.1 1.5-12.2 1.2-1.5-.4-3-.8-4.4-1.6-.2-.1-.4-.2-.4-.4 0-.3.3-.2.4-.2 1.8-.8 3.5-1.6 5.3-2.4 2.2-.9 4.3-1.9 6.5-2.8 3.7-1.5 7.3-3.2 11.1-4.7 3.3-1.4 6.5-2.9 9.8-4.3.7-.3 1.4-.4 2.2.1 1 .6 2.1 1 3.2 1.4.5.2 1 .2.9-.7-.2-2 .2-4-.2-6-.3-1.7-2-2.6-3.3-2.1-2.2.7-4.3 1.7-6.5 2.6-2.7 1.1-5.3 2.4-8 3.5-3.3 1.3-6.6 2.8-9.8 4.2-2.2 1-4.3 1.9-6.5 2.8-2.6 1.1-5.3 2.1-7.7 3.4-1.8 1-3.1 2.3-3.1 4.6v57.6c0 1.9.9 3.4 2.3 4.5 3.5 2.7 7.7 3.5 12.1 3.9 1.4.1 2.8-.2 4.2-.2 1.3-.1 1.4-.2 1.4-1.5V282c0-4 2-6.9 5.4-8.7 3-1.6 6.2-2.8 9.4-4.2z"></path></g></switch></g><!----></svg>